<svg xmlns="http://www.w3.org/2000/svg" width="512" height="512" fill="none" viewBox="0 0 512 512"><circle cx="256" cy="256" r="256" fill="url(#gradient)"/><text x="256" y="300" fill="#fff" font-family="Arial, sans-serif" font-size="120" font-weight="bold" text-anchor="middle">AK</text><text x="256" y="380" fill="rgba(255,255,255,0.8)" font-family="Arial, sans-serif" font-size="48" font-weight="normal" text-anchor="middle">UI</text><text x="256" y="420" fill="rgba(255,255,255,0.6)" font-family="Arial, sans-serif" font-size="24" font-weight="normal" text-anchor="middle">Design System</text><circle cx="128" cy="128" r="20" fill="rgba(255,255,255,0.3)"/><circle cx="384" cy="128" r="16" fill="rgba(255,255,255,0.2)"/><circle cx="384" cy="384" r="20" fill="rgba(255,255,255,0.3)"/><circle cx="128" cy="384" r="16" fill="rgba(255,255,255,0.2)"/><g fill="none" stroke="rgba(255,255,255,0.1)" stroke-width="2"><circle cx="256" cy="256" r="150"/><circle cx="256" cy="256" r="200"/><circle cx="256" cy="256" r="100"/></g><g fill="rgba(255,255,255,0.4)"><rect width="60" height="20" x="180" y="140" rx="10"/><rect width="60" height="20" x="270" y="140" rx="10"/><rect width="150" height="80" x="180" y="180" fill="none" stroke="rgba(255,255,255,0.4)" stroke-width="2" rx="8"/><rect width="40" height="8" x="190" y="190" rx="4"/><rect width="80" height="6" x="190" y="210" rx="3"/><rect width="60" height="6" x="190" y="225" rx="3"/></g><defs><linearGradient id="gradient" x1="0%" x2="100%" y1="0%" y2="100%"><stop offset="0%" style="stop-color:#6366f1;stop-opacity:1"/><stop offset="30%" style="stop-color:#8b5cf6;stop-opacity:1"/><stop offset="70%" style="stop-color:#ec4899;stop-opacity:1"/><stop offset="100%" style="stop-color:#f97316;stop-opacity:1"/></linearGradient></defs></svg>