<?xml version="1.0" encoding="UTF-8" standalone="no"?>
<svg width="300" height="120" viewBox="0 0 300 120" fill="none" xmlns="http://www.w3.org/2000/svg">
  <defs>
    <linearGradient id="grad1" x1="0%" y1="0%" x2="100%" y2="100%">
      <stop offset="0%" style="stop-color:#4F46E5;stop-opacity:1" />
      <stop offset="100%" style="stop-color:#7C3AED;stop-opacity:1" />
    </linearGradient>
    <linearGradient id="grad2" x1="0%" y1="0%" x2="100%" y2="0%">
      <stop offset="0%" style="stop-color:#06B6D4;stop-opacity:1" />
      <stop offset="100%" style="stop-color:#3B82F6;stop-opacity:1" />
    </linearGradient>
  </defs>
  <path d="M55 60V30H65L75 50L85 30H95V60H85V45L78 60H72L65 45V60H55Z" fill="url(#grad1)"/>
  <path d="M100 60V30H110L120 45L130 30H140V60H130V45L122 55H118L110 45V60H100Z" fill="url(#grad1)"/>
  <path d="M145 60V30H155V60H145Z" fill="url(#grad1)"/>
  <path d="M165 60V30H195V40H175V60H165Z" fill="url(#grad2)"/>
  <path d="M200 60V30H210V60H200Z" fill="url(#grad2)"/>
</svg>
