<svg xmlns="http://www.w3.org/2000/svg" width="300" height="120" fill="none" viewBox="0 0 300 120"><defs><linearGradient id="grad1" x1="0%" x2="100%" y1="0%" y2="100%"><stop offset="0%" style="stop-color:#4f46e5;stop-opacity:1"/><stop offset="100%" style="stop-color:#7c3aed;stop-opacity:1"/></linearGradient><linearGradient id="grad2" x1="0%" x2="100%" y1="0%" y2="0%"><stop offset="0%" style="stop-color:#06b6d4;stop-opacity:1"/><stop offset="100%" style="stop-color:#3b82f6;stop-opacity:1"/></linearGradient></defs><path fill="url(#grad1)" d="M55 60V30H65L75 50L85 30H95V60H85V45L78 60H72L65 45V60H55Z"/><path fill="url(#grad1)" d="M100 60V30H110L120 45L130 30H140V60H130V45L122 55H118L110 45V60H100Z"/><path fill="url(#grad1)" d="M145 60V30H155V60H145Z"/><path fill="url(#grad2)" d="M165 60V30H195V40H175V60H165Z"/><path fill="url(#grad2)" d="M200 60V30H210V60H200Z"/></svg>